<?xml version="1.0" standalone="no"?>
<!DOCTYPE svg PUBLIC "-//W3C//DTD SVG 20010904//EN"
 "http://www.w3.org/TR/2001/REC-SVG-20010904/DTD/svg10.dtd">
<svg version="1.0" xmlns="http://www.w3.org/2000/svg"
 width="1002.000000pt" height="1024.000000pt" viewBox="0 0 1002.000000 1024.000000"
 preserveAspectRatio="xMidYMid meet">

<g transform="translate(0.000000,1024.000000) scale(0.100000,-0.100000)"
fill="#000000" stroke="none">
<path d="M1276 9695 c-351 -72 -651 -286 -824 -588 -68 -120 -99 -201 -129
-337 l-25 -115 -3 -1100 c-2 -633 1 -1159 6 -1238 6 -83 20 -176 34 -233 79
-311 322 -601 630 -751 104 -51 185 -76 309 -98 76 -13 251 -15 1268 -15 1146
0 1183 1 1279 20 133 27 174 41 304 105 253 124 438 318 557 585 26 58 57 150
69 205 l23 100 3 1158 c4 1245 3 1288 -47 1459 -29 99 -129 299 -189 378 -161
213 -403 375 -668 448 l-98 26 -465 1 -465 0 -58 -27 c-78 -37 -158 -120 -188
-195 -19 -47 -23 -77 -24 -163 0 -96 2 -109 28 -159 38 -72 115 -146 185 -179
l57 -27 415 -5 c346 -4 422 -8 457 -21 108 -41 204 -123 243 -206 52 -111 51
-74 48 -1294 l-3 -1135 -38 -76 c-58 -119 -155 -193 -282 -218 -44 -8 -370
-10 -1185 -8 l-1125 3 -67 32 c-94 44 -160 109 -206 202 l-37 75 -3 1090 c-2
677 1 1122 7 1173 21 169 118 294 276 353 42 15 96 24 178 30 102 6 125 11
180 38 83 41 156 118 187 197 19 47 24 80 24 155 1 86 -2 101 -28 155 -36 73
-105 144 -177 182 -52 27 -60 28 -209 30 -102 1 -178 -3 -224 -12z"/>
<path d="M6290 9690 c-319 -68 -589 -247 -761 -504 -99 -147 -147 -260 -185
-436 -18 -80 -19 -155 -19 -1305 l0 -1220 32 -123 c54 -209 154 -383 308 -537
175 -176 378 -282 630 -330 118 -22 2406 -23 2534 0 384 67 723 331 874 680
74 170 87 245 98 555 11 303 8 366 -23 449 -30 80 -69 132 -130 173 -80 54
-144 71 -247 66 -76 -4 -94 -8 -159 -43 -81 -42 -129 -91 -170 -175 -27 -55
-27 -56 -33 -340 -5 -261 -7 -290 -27 -341 -33 -84 -78 -145 -139 -189 -113
-81 -15 -75 -1313 -75 l-1155 0 -53 22 c-117 48 -218 158 -247 269 -13 50 -15
209 -15 1180 0 1091 1 1124 20 1185 35 112 141 224 257 270 l58 24 1135 0
1135 0 57 -21 c74 -28 156 -84 192 -130 41 -52 75 -140 92 -242 8 -48 26 -110
39 -139 67 -149 249 -244 406 -214 168 33 267 123 310 279 16 57 17 78 9 156
-34 294 -152 539 -356 736 -142 137 -279 222 -449 279 -187 63 -151 61 -1444
60 -1100 0 -1181 -2 -1261 -19z"/>
<path d="M1315 4649 c-160 -21 -374 -103 -515 -200 -80 -54 -208 -175 -265
-249 -103 -136 -169 -279 -211 -457 l-26 -108 -3 -1125 c-2 -697 1 -1165 7
-1230 28 -293 130 -521 328 -733 172 -183 364 -292 616 -349 99 -23 100 -23
1219 -26 794 -2 1153 0 1235 8 250 25 477 125 673 295 157 135 297 351 352
542 49 169 56 257 53 664 l-3 374 -29 55 c-62 118 -144 187 -256 216 -180 46
-384 -55 -451 -223 -23 -56 -24 -70 -29 -438 -6 -405 -6 -409 -60 -515 -43
-84 -167 -169 -280 -190 -33 -6 -449 -10 -1134 -10 -1178 0 -1152 -1 -1258 57
-68 37 -137 109 -165 172 -54 122 -53 93 -53 1236 0 625 4 1085 10 1119 22
137 107 252 230 310 l65 31 1175 0 1175 0 68 -33 c136 -67 193 -151 224 -332
19 -111 51 -180 111 -238 154 -150 400 -154 546 -9 120 120 142 274 75 526
-56 212 -131 350 -270 496 -170 177 -374 293 -620 351 -68 16 -172 18 -1269
20 -667 1 -1226 -2 -1265 -7z"/>
<path d="M6350 4649 c-392 -41 -781 -330 -934 -694 -99 -237 -98 -224 -94
-1600 l4 -1160 31 -116 c127 -477 494 -809 987 -894 200 -34 329 -4 437 102
155 151 155 396 0 551 -73 73 -139 102 -258 112 -54 5 -119 16 -145 24 -114
34 -206 119 -254 233 l-29 68 -3 1129 c-2 1116 -2 1131 18 1192 39 118 113
203 219 253 l56 26 1180 0 1180 0 60 -29 c89 -44 163 -124 200 -216 l30 -75 3
-1090 c2 -759 0 -1109 -8 -1154 -22 -128 -85 -230 -180 -291 -80 -51 -128 -62
-320 -69 -172 -6 -177 -7 -242 -39 -84 -41 -158 -120 -188 -200 -14 -35 -24
-90 -27 -144 -6 -84 -4 -90 29 -160 59 -125 155 -201 288 -229 89 -19 353 -5
480 25 116 27 236 71 320 119 70 40 169 113 197 146 l21 26 -21 13 c-15 9 -16
12 -4 8 15 -5 16 -2 7 14 -11 20 -8 23 25 23 29 0 36 -3 31 -12 -3 -5 -16 -7
-29 -5 -20 4 -21 4 -2 -5 12 -6 15 -10 6 -10 -8 -1 -11 -4 -7 -8 7 -7 126 105
126 119 0 4 -10 8 -22 8 -17 0 -19 -3 -10 -9 11 -6 10 -10 -3 -15 -10 -3 -23
-2 -30 4 -11 9 -13 5 -11 -14 2 -18 -2 -26 -13 -27 -12 0 -12 -2 3 -8 11 -4
15 -10 10 -13 -5 -3 -22 0 -37 7 l-29 12 37 38 c30 30 39 35 47 24 8 -12 9
-11 5 1 -2 8 -12 14 -22 12 -11 -2 -15 2 -13 10 3 8 16 12 32 10 18 -2 25 1
21 8 -3 6 -11 7 -17 4 -6 -4 -8 2 -3 17 l7 24 -17 -22 c-9 -13 -24 -23 -33
-23 -13 0 -12 5 8 21 14 11 20 18 13 15 -8 -5 -9 1 0 23 l11 29 22 -46 c31
-63 52 -88 63 -76 26 26 123 193 150 257 44 107 78 247 89 372 11 123 9 2284
-2 2350 -37 213 -105 398 -198 534 -131 191 -361 361 -598 441 -168 57 -96 54
-1380 56 -652 1 -1223 -2 -1270 -7z m3068 -4031 c-12 -21 -28 -38 -36 -38 -13
0 -13 2 0 18 9 9 13 23 10 31 -3 10 0 12 11 8 10 -4 14 -2 11 7 -3 7 2 13 10
13 13 0 12 -7 -6 -39z m-28 -2 c0 -2 -7 -7 -16 -10 -8 -3 -12 -2 -9 4 6 10 25
14 25 6z m108 -23 c-6 -7 -14 -10 -19 -7 -15 9 -10 20 10 20 15 0 17 -3 9 -13z
m-138 -15 c0 -4 10 -8 23 -8 17 0 19 -2 8 -9 -8 -5 -20 -7 -27 -4 -6 2 -15 0
-19 -6 -4 -7 0 -8 11 -4 14 5 16 2 11 -15 -3 -13 1 -28 10 -37 8 -8 11 -15 8
-15 -13 0 -105 55 -105 62 0 4 -8 5 -17 2 -14 -5 -15 -4 -5 4 8 5 27 8 42 7
17 -1 31 3 34 11 3 9 -1 11 -12 8 -12 -4 -14 -3 -4 3 16 12 42 13 42 1z"/>
<path d="M9320 530 c8 -5 20 -10 25 -10 6 0 3 5 -5 10 -8 5 -19 10 -25 10 -5
0 -3 -5 5 -10z"/>
<path d="M9510 660 c0 -5 5 -10 11 -10 5 0 7 5 4 10 -3 6 -8 10 -11 10 -2 0
-4 -4 -4 -10z"/>
</g>
</svg>
